<svg id="a9f95f4e-6af9-4262-b7ee-62c748e23e69" data-name="Layer 1" xmlns="http://www.w3.org/2000/svg" width="71.99227" height="69.00002" viewBox="0 0 71.99227 69.00002">
  <defs>
    <style>
      .\32 031a7c0-ff74-4df6-9f6d-7f2bcc85f7f6 {
        fill: #cdcdcd;
      }
    </style>
  </defs>
  <title>build</title>
  <g id="79de3be0-257c-46a6-92d3-d923a7c12dc1" data-name="Artboard 1">
    <path id="9155a299-12ad-4da7-853d-6f76bfdd3a1e" data-name="Process 4" class="2031a7c0-ff74-4df6-9f6d-7f2bcc85f7f6" d="M20.161,80A6.759,6.759,0,0,1,13.6,74.93L9.179,57.4a5.879,5.879,0,0,1,2.275-6.18L27.641,39.406a2.5,2.5,0,0,1,3.49315.54583l.00085.00117L45.761,60a2.5,2.5,0,0,1-.545,3.49327l-.001.00073L37.2,69.345a2.5,2.5,0,0,1-3.49445-.53741L33.7,68.8,24.929,56.771a.8.8,0,0,0-.528-.322.834.834,0,0,0-.6.146l-1.336.976a2.374,2.374,0,0,0-.9,2.511l2.047,9.4a2.42,2.42,0,0,0,1.128,1.55l2.348,1.384A2.47,2.47,0,0,1,28.3,74.428,2.531,2.531,0,0,1,27.26,76.6l-2.5,1.826A7.815,7.815,0,0,1,20.161,80Zm8.952-39.38a.8.8,0,0,0-.475.155L12.452,52.59a4.191,4.191,0,0,0-1.631,4.4L15.23,74.484a5.126,5.126,0,0,0,3.27,3.547,5.746,5.746,0,0,0,5.261-.974l2.5-1.825a.833.833,0,0,0,.351-.722.773.773,0,0,0-.384-.638l-2.347-1.384a4.119,4.119,0,0,1-1.921-2.644l-2.047-9.4A4.075,4.075,0,0,1,21.466,56.2l1.336-.975a2.5,2.5,0,0,1,3.49327.545l.00073.001L35.072,67.8a.807.807,0,0,0,1.12739.17745L36.2,67.977l8.017-5.852A.806.806,0,0,0,44.394,61L29.767,40.951a.806.806,0,0,0-.653-.332Zm16.743,16.1-.115-1.69,4.2-.284.866-5.591,4.763-.233.863-5.578L61.2,43.11l.863-5.578,4.763-.233.863-5.578,4.764-.233.863-5.578,4.79-.235,1.069-5.483-6.362-6.954L32.1,41.523l-.966-1.39L73.061,11,81,19.678,79.513,27.3l-4.737.232-.863,5.578-4.764.233-.863,5.578-4.763.233-.863,5.578-4.764.232-.863,5.578-4.763.233-.861,5.566Z" transform="translate(-9.00773 -11)"/>
  </g>
</svg>
