<svg id="554f05b5-cb7a-4f08-a1a0-2109c582f605" data-name="Layer 1" xmlns="http://www.w3.org/2000/svg" width="70.822" height="73.00051" viewBox="0 0 70.822 73.00051">
  <defs>
    <style>
      .e8a3171d-5205-45be-8584-b564f89b306d {
        fill: #cdcdcd;
      }
    </style>
  </defs>
  <title>call</title>
  <g id="b20fe73a-8ef6-4d13-ab37-fdf7b68f94db" data-name="Artboard 1">
    <path id="7d874dfa-3df0-4606-9f70-3abc1af4bd7f" data-name="Process 2" class="e8a3171d-5205-45be-8584-b564f89b306d" d="M71.718,36.764a.836.836,0,0,1-.84-.832v-.001a25.484,25.484,0,0,0-50.967,0,.84.84,0,0,1-1.679,0,27.164,27.164,0,0,1,54.326,0,.836.836,0,0,1-.839.833ZM56.117,78.3a.84.84,0,0,1-.774-.508.83.83,0,0,1,.43967-1.08835L55.789,76.701A17.679,17.679,0,0,0,66.7,60.389a.84.84,0,0,1,1.679,0A19.343,19.343,0,0,1,56.443,78.238.85092.85092,0,0,1,56.117,78.3ZM20.271,58.787a10.182,10.182,0,0,1,0-20.364.833.833,0,1,1,.05769,1.665q-.02883.001-.05769,0a8.517,8.517,0,0,0,0,17.034.833.833,0,1,1,.05769,1.665Q20.29986,58.788,20.271,58.787Zm2.917,2.267a4.053,4.053,0,0,1-4.066-4.032V40.868a4.066,4.066,0,0,1,8.132,0V57.023a4.053,4.053,0,0,1-4.067,4.031Zm0-22.553A2.38,2.38,0,0,0,20.8,40.868V57.023a2.387,2.387,0,0,0,4.774,0V40.868A2.38,2.38,0,0,0,23.187,38.5ZM70.729,58.787a.833.833,0,1,1-.05769-1.665q.02883-.001.05769,0a8.517,8.517,0,0,0,0-17.034.833.833,0,1,1-.05769-1.665q.02883-.001.05769,0a10.182,10.182,0,1,1,0,20.364ZM67.39,61.054a4.053,4.053,0,0,1-4.066-4.032V40.868a4.0665,4.0665,0,1,1,8.133,0V57.023A4.054,4.054,0,0,1,67.39,61.054Zm0-22.553A2.38,2.38,0,0,0,65,40.868V57.023a2.387,2.387,0,1,0,4.774,0V40.868A2.38,2.38,0,0,0,67.39,38.5ZM51.827,82H48.6a5.072,5.072,0,0,1-.14259-10.143q.07129-.001.14259,0h3.226A5.072,5.072,0,0,1,51.9697,82Q51.89835,82.001,51.827,82ZM48.6,73.522a3.40651,3.40651,0,0,0,0,6.813h3.226a3.406,3.406,0,1,0,.0066-6.812H48.6Z" transform="translate(-10.089 -9)"/>
  </g>
</svg>
