<svg id="9673d975-fc6c-4bf8-b201-3ce73b6f9f44" data-name="Layer 1" xmlns="http://www.w3.org/2000/svg" width="66.99296" height="72" viewBox="0 0 66.99296 72">
  <defs>
    <style>
      .\39 d3e5727-3c99-4185-8fa8-4cd795719330 {
        fill: #cdcdcd;
      }
    </style>
  </defs>
  <title>date</title>
  <g id="aa5152ba-d2ff-4c2e-9962-a4667a522981" data-name="Artboard 1">
    <path id="4f67230c-c96e-4344-8803-077f1cbca76b" data-name="Process 4" class="9d3e5727-3c99-4185-8fa8-4cd795719330" d="M67.41,55.842h-8.1V54.2h8.1v1.642ZM75.925,81H51.039a2.216,2.216,0,0,1-2.076-2.33V56.529a2.216,2.216,0,0,1,2.076-2.33h3.029v1.644H51.039a.637.637,0,0,0-.434.687V78.67a.627.627,0,0,0,.434.687H75.925a.627.627,0,0,0,.434-.687V56.529a.637.637,0,0,0-.434-.687H72.649V54.2h3.276A2.216,2.216,0,0,1,78,56.529v22.14A2.216,2.216,0,0,1,75.925,81ZM69.4,75.043H67.755v-3.22H63.523a1,1,0,0,1-.8-1.61l5.2-6.8a.821.821,0,0,1,1.473.5v11.13ZM64.818,70.18h2.936V66.337Zm5.642,1.644H68.576V70.18H70.46Zm-8.922,3.219H59.9V66.794l-2.7,4.35-1.395-.866,4.215-6.8a.821.821,0,0,1,1.519.433V75.043ZM46.754,81H18.372V43.964h-6.3a1.063,1.063,0,0,1-.751-1.814L23.259,30.16V12.524h8.693v8.909L44.333,9,77.352,42.15a1.063,1.063,0,0,1-.752,1.813H70.3V47.35H68.653V42.32H75.2L44.333,11.329,30.31,25.409V14.168H24.9V30.84L13.465,42.32h6.549V79.356h26.74ZM12.48,43.31ZM70.851,59.462H69.209V50.58h1.642Zm-13.342,0H55.866V50.58h1.642v8.882Z" transform="translate(-11.01031 -9)"/>
  </g>
</svg>
