<svg id="945e95c9-3ef1-4568-b374-cc7c223f8d81" data-name="Layer 1" xmlns="http://www.w3.org/2000/svg" width="61.02009" height="72.00349" viewBox="0 0 61.02009 72.00349">
  <defs>
    <style>
      .dd12f8b1-031a-4f2a-8a8c-9d872c5d98e9 {
        fill: #cdcdcd;
      }
    </style>
  </defs>
  <title>drawings</title>
  <g id="ba4deadc-b961-42c3-a770-0736f5fe016c" data-name="Artboard 1">
    <path id="104650f8-76ca-40de-af14-99897fe2d8f6" data-name="Process 3" class="dd12f8b1-031a-4f2a-8a8c-9d872c5d98e9" d="M23.636,82a.821.821,0,0,1-.735-.455l-4.686-9.381,1.471-.736,3.951,7.907,3.951-7.907,1.471.736-4.686,9.381A.821.821,0,0,1,23.636,82ZM47.067,25.714a.821.821,0,0,1-.582-.242L41.8,20.782a.823.823,0,0,1-.241-.582V13.947a.823.823,0,0,1,.366-.685l4.686-3.127a.82.82,0,0,1,.912,0l4.686,3.127a.823.823,0,0,1,.366.685v6.486a.823.823,0,0,1-.256.6l-4.686,4.458A.819.819,0,0,1,47.067,25.714ZM43.2,19.859l3.878,3.882,3.849-3.662V14.388L47.063,11.81,43.2,14.388v5.471Zm3.864,24.617A10.2,10.2,0,1,1,57.259,34.271v.005h0a10.2,10.2,0,0,1-10.192,10.2Zm0-18.762a8.56,8.56,0,1,0,8.55,8.57v-.013h0a8.563,8.563,0,0,0-8.547-8.557Zm.826,38.264H46.245V49.907H47.89Zm-.823-6.994a28.174,28.174,0,0,1-25.736-16.1.82281.82281,0,1,1,1.486-.707h0a26.543,26.543,0,0,0,24.25,15.16A26.543,26.543,0,0,0,71.318,40.173a.823.823,0,0,1,1.50131.67482L72.804,40.88A28.174,28.174,0,0,1,47.067,56.984Zm-23.431,17.2a8.641,8.641,0,1,1,8.633-8.649v.008a8.647,8.647,0,0,1-8.633,8.639Zm0-15.635a6.994,6.994,0,1,0,6.988,7v-.006a7,7,0,0,0-6.988-6.996ZM70.5,82h-.023a.823.823,0,0,1-.7-.437L49.581,43.467l1.453-.771L70.543,79.5l3.7-6.169L55.265,37.528l1.453-.771L75.911,72.974a.823.823,0,0,1-.021.809L71.2,81.6A.823.823,0,0,1,70.5,82ZM31.63,63.124,30.2,62.3,41.839,42.08l1.426.82Zm-6.178-4.91-1.426-.822L36.982,34.879l1.425.821Z" transform="translate(-14.987 -9.99652)"/>
  </g>
</svg>
