<svg xmlns="http://www.w3.org/2000/svg" width="15.33853" height="33.10474" viewBox="0 0 15.33853 33.10474">
  <defs>
    <style>
      .a {
        fill: #7a5d78;
      }
    </style>
  </defs>
  <title>facebook</title>
  <path class="a" d="M10.311,24.80078V32.501c0,.5-.05.59961-.567.59961H3.688A.349.349,0,0,1,3.38666,32.71L3.388,32.7002c-.01-.09961,0-.29981,0-.4004V17.09961c0-.5,0-.5-.476-.5H.212a.75525.75525,0,0,1-.184-.2002.89822.89822,0,0,1-.02-.2998V11.19922c0-.40039.018-.5.491-.5H3.167c.138,0,.216,0,.216-.2002v-.20019c0-1.09961.01-2.2002.01-3.29981a9.26682,9.26682,0,0,1,.282-2.2998,6.68323,6.68323,0,0,1,.813-2A5.32915,5.32915,0,0,1,6.877.59961a7.76568,7.76568,0,0,1,2.136-.5A12.60359,12.60359,0,0,1,10.95093,0H15.088c.186,0,.228,0,.245.2002a1.92433,1.92433,0,0,1,0,.20019V5.30078h0c0,.5-.029.5-.441.5H12.665c-.438,0-.88.09961-1.308.09961a1.15728,1.15728,0,0,0-1,1.2002c-.016,1.09961-.035,2.09961-.053,3.20019a1.92085,1.92085,0,0,0,0,.2002c0,.20019.061.20019.173.20019h4.487c.378,0,.4.09961.367.5-.052.59961-.091,1.2002-.152,1.7002-.063.70019-.149,1.2998-.22,1.90039-.053.40039-.1.90039-.144,1.2998-.036.5-.051.5-.474.5h-3.609c-.435,0-.435,0-.435.40039v7.79981h0Z" transform="translate(-0.00333 0.00415)"/>
</svg>
