<svg id="3c470504-2f1a-4040-bc8d-31787a5e0ac3" data-name="Layer 1" xmlns="http://www.w3.org/2000/svg" width="59" height="82" viewBox="0 0 59 82">
  <defs>
    <style>
      .c8839940-01c2-4281-9b13-6673bc3ab3ed {
        fill: #cdcdcd;
      }
    </style>
  </defs>
  <title>handover</title>
  <g id="c1bcf79e-c81f-4c8f-adee-66f1a72b602f" data-name="Artboard 1">
    <path id="43311a72-9f58-4dee-bde1-a25d8c007861" data-name="Process 4" class="c8839940-01c2-4281-9b13-6673bc3ab3ed" d="M33.951,29.915a2.97305,2.97305,0,0,1-.339-.013,1.5,1.5,0,0,1-1.394-1.577l.4-7.872a20.2069,20.2069,0,0,1,1.788-5.875,11.145,11.145,0,0,1,6.089-5.53l8.59-3.275A6.6771,6.6771,0,0,1,52.1,5.356,130.68627,130.68627,0,0,1,65.668,7.185l-.344,1.544a129.0532,129.0532,0,0,0-13.369-1.8,5.03493,5.03493,0,0,0-2.3.318l-8.591,3.275a9.564,9.564,0,0,0-5.227,4.743A18.61908,18.61908,0,0,0,34.2,20.612l-.388,7.717a2.8,2.8,0,0,0,2.9-2.252c.423-2.1.69-3.6.774-4.353a7.569,7.569,0,0,1,2.786-5.307,8.209,8.209,0,0,1,6.03-1.553,4.274,4.274,0,0,1,2.941,2.622c.185.793.023,1.994-1.793,3.209l-.138.074-5.452,2.26a1.807,1.807,0,0,0-1.094,1.285,1.694,1.694,0,0,0,1.949,1.971l11.4-1.862A8.57005,8.57005,0,0,0,58.3,22.46l3.037-2.617a5.738,5.738,0,0,1,3.26-1.374l.828-.072.139,1.576-.828.072a4.153,4.153,0,0,0-2.361,1l-3.036,2.616a10.17008,10.17008,0,0,1-4.967,2.327l-11.4,1.862a3.269,3.269,0,0,1-2.856-.909,3.23,3.23,0,0,1-.925-2.845,3.391,3.391,0,0,1,2.03-2.512l5.4-2.24A1.966,1.966,0,0,0,47.7,17.886a2.8,2.8,0,0,0-1.656-1.461,6.7,6.7,0,0,0-4.8,1.24A5.948,5.948,0,0,0,39.062,21.9c-.091.8-.358,2.314-.8,4.489A4.406,4.406,0,0,1,33.951,29.915ZM75,23.14H64.7V4H75V5.584H66.29V21.558H75Zm-4.344-3.751a1.77551,1.77551,0,1,0-.003,0h.003Zm0-1.952a.186.186,0,0,0-.186.185c0,.2.371.2.371,0a.185.185,0,0,0-.185-.185l-.004,0Zm-20.835,15.6-1.563-.276a5.343,5.343,0,0,0-.9-4.03l1.3-.906a6.9,6.9,0,0,1,1.16,5.216Zm-10.29,4.881a6.97192,6.97192,0,0,1-2.9-3.05,6.881,6.881,0,0,1-.6-4.257l1.563.276a5.324,5.324,0,0,0,.462,3.289A5.4,5.4,0,0,0,40.3,36.539Zm1.4,25.705L38.109,60.9V46.877a6.932,6.932,0,0,1-3.2-9.939l1.363.813A5.33,5.33,0,0,0,35.51,40.5a5.391,5.391,0,0,0,3.652,5.093l.538.18V60.23l1.226,1.189L42.15,60.23V45.773l.535-.184A5.387,5.387,0,0,0,40.924,35.1L40.9,33.522v.791l-.072-.787.095-.005a6.968,6.968,0,0,1,2.815,13.357V60.9ZM59.132,57.7l-9.953-9.91a6.9819,6.9819,0,0,1-2.262.461l-.059-1.581a5.355,5.355,0,0,0,2.152-.532l.51-.248L59.781,56.113l1.712-.023.023-1.7L51.253,44.164l.249-.507a5.369,5.369,0,0,0-3.172-7.478l.494-1.5a6.952,6.952,0,0,1,4.47828,8.75247q-.06506.20138-.14228.39853l9.954,9.914-.054,3.913ZM47.455,84.912a7.66482,7.66482,0,0,1-2.289-.35L30.985,80.123a3.593,3.593,0,0,0-2.529.143L23.411,82.5l-.646-1.445,5.044-2.233a5.178,5.178,0,0,1,3.652-.207l14.18,4.44a6.115,6.115,0,0,0,5.465-.932l14.761-11.03a1.647,1.647,0,0,0,.33977-2.30429q-.03386-.04555-.07078-.08871a1.665,1.665,0,0,0-2.177-.31L50.937,76.94a3.694,3.694,0,0,1-3.233.394L40.41,74.769a.941.941,0,0,1,.224-1.826l11.85-1.109a2.039,2.039,0,0,0,1.86-2.036,2.06,2.06,0,0,0-2-2.044L37.409,67.4a15.547,15.547,0,0,0-5.317.794L23.34,71.1l-.5-1.5,8.752-2.906a17.32524,17.32524,0,0,1,5.856-.875l14.931.355A3.656,3.656,0,0,1,55.931,69.8a3.616,3.616,0,0,1-3.3,3.61l-8.939.837,4.54,1.6a2.1,2.1,0,0,0,1.832-.224L63.085,67.07a3.239,3.239,0,0,1,3.735,5.289L52.059,83.387A7.7,7.7,0,0,1,47.455,84.912ZM23.883,86H16V84.417h6.292V67.394H16V65.812h7.88V86Zm32.05-15.648-.874-1.32,3.674-2.413a2.885,2.885,0,0,1,4.3,1.6l-1.465.612a1.645,1.645,0,0,0-.894-1.017,1.61093,1.61093,0,0,0-1.105.143ZM57.2,68.476a1.1,1.1,0,0,0-1.047-.751,1.224,1.224,0,0,0-.637.227l-.747.508-.9-1.306.747-.508a2.80588,2.80588,0,0,1,1.476-.5,2.637,2.637,0,0,1,2.513,1.6Z" transform="translate(-16 -4)"/>
  </g>
</svg>
