<svg id="b020514d-d894-4307-89d6-4de6169f3e5e" data-name="Layer 1" xmlns="http://www.w3.org/2000/svg" width="70.03059" height="77.00083" viewBox="0 0 70.03059 77.00083">
  <defs>
    <style>
      .a47cb228-5666-4469-b512-2b539d307cfa {
        fill: #cdcdcd;
      }
    </style>
  </defs>
  <g id="6841ca09-238a-40f7-817b-d09e337b16f9" data-name="Artboard 1">
    <path id="155e2704-e597-449c-bd6e-64b1af05887d" data-name="Process 1" class="a47cb228-5666-4469-b512-2b539d307cfa" d="M39.412,73.076H37.794l1.618-.031Zm6.237-58.621a.808.808,0,0,1-.809-.806V7.808a.809.809,0,0,1,1.618,0v5.841A.808.808,0,0,1,45.649,14.455Zm0,0a.808.808,0,0,1-.809-.806V7.808a.809.809,0,0,1,1.618,0v5.841A.808.808,0,0,1,45.649,14.455ZM28.1,20.363a.808.808,0,0,1-.655-.332L23.995,15.3a.808.808,0,0,1,1.309-.947l3.448,4.726a.806.806,0,0,1-.652,1.284ZM17.383,35.418a.80839.80839,0,0,1-.25-.04l-5.578-1.805a.806.806,0,0,1,.463-1.54408l.037.01208,5.578,1.805a.805.805,0,0,1-.25,1.572ZM12.021,55.676a.805.805,0,0,1-.25-1.572L17.349,52.3a.806.806,0,1,1,.537,1.51992l-.037.01208-5.578,1.805A.81218.81218,0,0,1,12.021,55.676ZM25.216,73.4a.806.806,0,0,1-.654-1.279l3.448-4.725a.808.808,0,0,1,1.309.947l-3.447,4.725A.809.809,0,0,1,25.216,73.4Zm42.136-.411a.809.809,0,0,1-.655-.332l-3.448-4.725a.8.8,0,0,1,.17006-1.11852L63.428,66.807a.812.812,0,0,1,1.13.178l3.448,4.725a.806.806,0,0,1-.654,1.277ZM80.2,55.011a.809.809,0,0,1-.25-.04l-5.578-1.805a.806.806,0,0,1,.463-1.54408l.037.01208,5.578,1.805a.805.805,0,0,1-.25,1.572ZM74.4,34.754a.805.805,0,0,1-.25-1.572l5.578-1.805a.806.806,0,0,1,.537,1.51993l-.037.01207L74.65,34.714A.81176.81176,0,0,1,74.4,34.754Zm-11.066-14.8a.806.806,0,0,1-.654-1.279l3.447-4.726a.808.808,0,0,1,1.309.947L63.99,19.62a.808.808,0,0,1-.655.332ZM46.02,84a8.44,8.44,0,0,1-8.447-8.413l-.025-3.973c-.088-6.236-4.768-10.61-6.2-11.8l-.309-.25a21.7,21.7,0,0,1-8.443-17.072c0-12.21,10.43-22.144,23.249-22.144s23.249,9.934,23.249,22.144A21.78693,21.78693,0,0,1,60.58,59.615c-1.144.872-6.643,5.411-6.146,11.941l.033,4.023A8.441,8.441,0,0,1,46.02,84ZM32.729,58.869c1.861,1.635,6.346,6.247,6.437,12.724l.025,3.988a6.829,6.829,0,1,0,13.658,0l-.03-3.962c-.557-7.3,5.518-12.328,6.742-13.261a20.194,20.194,0,0,0,7.914-15.873c0-11.322-9.7-20.532-21.631-20.532S24.212,31.167,24.212,42.489A20.1,20.1,0,0,0,32.041,58.3l.692.545Zm4.608,18.2H35.31a1.722,1.722,0,0,1-1.723-1.716v-.327A1.722,1.722,0,0,1,35.31,73.31h2.027a1.722,1.722,0,0,1,1.723,1.716v.324a1.722,1.722,0,0,1-1.723,1.716ZM35.31,74.921a.108.108,0,0,0-.105.1v.324a.108.108,0,0,0,.105.1h2.027a.108.108,0,0,0,.105-.1v-.319a.108.108,0,0,0-.105-.1H35.31Zm21.483,2.145H54.767a1.722,1.722,0,0,1-1.723-1.716v-.324a1.722,1.722,0,0,1,1.723-1.716h2.027a1.722,1.722,0,0,1,1.723,1.716v.324A1.722,1.722,0,0,1,56.793,77.066Zm-2.027-2.145a.108.108,0,0,0-.105.1v.324a.108.108,0,0,0,.105.1h2.027a.108.108,0,0,0,.105-.1v-.319a.108.108,0,0,0-.105-.1H54.767ZM53.45,72.5h-15a.806.806,0,0,1-.0012-1.612H53.45a.806.806,0,0,1,.00121,1.612Z" transform="translate(-10.98028 -6.99917)"/>
  </g>
</svg>
