<svg xmlns="http://www.w3.org/2000/svg" width="68.26211" height="75.24927" viewBox="0 0 68.26211 75.24927">
  <defs>
    <style>
      .idea {
        fill: #cdcdcd;
      }
    </style>
  </defs>
  <path class="idea" d="M27.7,64.57983H26.123l1.577-.03Zm6.08-57.29a.78806.78806,0,0,1-.789-.7871V.78979a.789.789,0,1,1,1.578,0v5.71a.78705.78705,0,0,1-.784.79H33.78Zm0,0a.78806.78806,0,0,1-.789-.7871V.78979a.789.789,0,1,1,1.578,0v5.71a.78705.78705,0,0,1-.784.79H33.78Zm-17.11,5.77a.79024.79024,0,0,1-.639-.32006l-3.36-4.62012a.787.787,0,1,1,1.24374-.9646q.01692.0216.03226.04468l3.361,4.6101a.786.786,0,0,1-.1723,1.09815l-.0027.002a.7307.7307,0,0,1-.465.1499Zm-10.445,14.72a1.04644,1.04644,0,0,1-.244-.04l-5.437-1.77a.784.784,0,1,1,.45163-1.50147l.03537.01148,5.438,1.76a.785.785,0,0,1,.50671.98779l-.00071.0022a.80013.80013,0,0,1-.752.55029ZM1,47.56982a.784.784,0,0,1-.244-1.53l5.438-1.77a.789.789,0,0,1,.487,1.5l-5.437,1.76A.69778.69778,0,0,1,1,47.56982ZM13.862,64.88989a.787.787,0,0,1-.637-1.25l3.361-4.62011a.78945.78945,0,1,1,1.276.92993h0l-3.361,4.6101a.77208.77208,0,0,1-.642.33008ZM54.938,64.49a.77083.77083,0,0,1-.639-.33008L50.938,59.5498a.78945.78945,0,1,1,1.276-.92993h0L55.575,63.24a.787.787,0,0,1-.64,1.25Zm12.52-17.57007a.692.692,0,0,1-.244-.04l-5.437-1.76a.789.789,0,0,1,.487-1.5l5.438,1.77a.78112.78112,0,0,1,.50921.98023l-.0032.00976a.79015.79015,0,0,1-.753.54Zm-5.649-19.79a.79.79,0,0,1-.244-1.54l5.438-1.76a.784.784,0,0,1,.52237,1.47852l-.03537.01147-5.437,1.77a1.04494,1.04494,0,0,1-.247.04Zm-10.787-14.47a.79982.79982,0,0,1-.463-.1499.788.788,0,0,1-.175-1.1001l3.361-4.62012a.78946.78946,0,1,1,1.276.92994h0l-3.36,4.62011a.78989.78989,0,0,1-.642.32007ZM34.142,75.25a8.23806,8.23806,0,0,1-8.234-8.22l-.025-3.87988c-.086-6.1001-4.648-10.37012-6.045-11.54l-.3-.24a21.21115,21.21115,0,0,1-8.231-16.67993c0-11.93995,10.167-21.6399,22.664-21.6399s22.664,9.7,22.664,21.6399a21.2921,21.2921,0,0,1-8.3,16.73c-1.115.85009-6.476,5.29-5.992,11.66992L42.375,67.02a8.23994,8.23994,0,0,1-8.236,8.23ZM21.186,50.68994C23,52.29,27.372,56.80005,27.46,63.12988l.025,3.8899a6.657,6.657,0,0,0,13.314.01l-.03-3.87012c-.543-7.13989,5.38-12.05,6.573-12.96a19.76306,19.76306,0,0,0,7.714-15.51c0-11.07007-9.459-20.07007-21.086-20.07007s-21.086,9-21.086,20.07007a19.64577,19.64577,0,0,0,7.631,15.43994l.675.54Zm4.492,17.78H23.7a1.678,1.678,0,0,1-1.68-1.66992V66.48a1.68588,1.68588,0,0,1,1.68-1.67993h1.976A1.68588,1.68588,0,0,1,27.356,66.48v.32007A1.67793,1.67793,0,0,1,25.675,68.47Zm-1.976-2.09009a.106.106,0,0,0-.1.1001v.32007a.106.106,0,0,0,.1.1001h1.976a.106.106,0,0,0,.1-.1001V66.48a.106.106,0,0,0-.1-.1001H23.702ZM44.645,68.47H42.669a1.678,1.678,0,0,1-1.68-1.66992V66.48a1.68587,1.68587,0,0,1,1.68-1.67993h1.976A1.68587,1.68587,0,0,1,46.325,66.48v.32007A1.678,1.678,0,0,1,44.642,68.47Zm-1.976-2.09009a.106.106,0,0,0-.1.1001v.32007a.106.106,0,0,0,.1.1001h1.976a.106.106,0,0,0,.1-.1001V66.48a.106.106,0,0,0-.1-.1001Zm-1.284-2.3601H26.757a.79.79,0,0,1,0-1.58008H41.382a.79016.79016,0,1,1,0,1.58032Z" transform="translate(0.01439 -0.00073)"/>
</svg>
