<svg xmlns="http://www.w3.org/2000/svg" width="29.73895" height="30.00317" viewBox="0 0 29.73895 30.00317">
  <defs>
    <style>
      .a {
        fill: #7a5d78;
      }
    </style>
  </defs>
  <title>instagram</title>
  <path class="a" d="M15.562,29.90039H10.976a20.31871,20.31871,0,0,1-2.462-.09961,10.89268,10.89268,0,0,1-3.107-.5,10.1592,10.1592,0,0,1-2.4-1.40039A7.73727,7.73727,0,0,1,.33,23.2002a15.66777,15.66777,0,0,1-.216-1.59961c-.05-.7002-.072-1.29981-.076-1.90039-.018-3.09961-.031-6.09961-.035-9.09961,0-.7002.027-1.40039.074-2A10.78613,10.78613,0,0,1,.94,4.7002,6.04579,6.04579,0,0,1,2.113,2.90039,10.91477,10.91477,0,0,1,3.897,1.30078a8.08581,8.08581,0,0,1,2.6-1A13.73142,13.73142,0,0,1,9.35.001c3.237-.09961,6.475,0,9.712-.09961a21.7429,21.7429,0,0,1,2.544.20019,10.25679,10.25679,0,0,1,3.848,1,8.085,8.085,0,0,1,1.408,1,7.12287,7.12287,0,0,1,1.888,2.5A9.87855,9.87855,0,0,1,29.493,7.002a21.12162,21.12162,0,0,1,.216,3.2002c.012,3,.029,6,.033,9,0,.70019-.026,1.40039-.074,2.09961a10.602,10.602,0,0,1-.646,3.2998,7.13192,7.13192,0,0,1-1.332,2.29981,6.28627,6.28627,0,0,1-2.549,2,5.95591,5.95591,0,0,1-2.22.70019,14.149,14.149,0,0,1-2.05.2002c-1.091.09961-2.184.09961-3.276.09961H15.562Zm11.461-15h.019c0-.5.008-1,0-1.5-.025-1.5-.062-2.90039-.087-4.2998a10.86727,10.86727,0,0,0-.178-1.79981,5.22727,5.22727,0,0,0-1.659-3.09961,6.63371,6.63371,0,0,0-1.895-1.09961,7.89485,7.89485,0,0,0-2.162-.2998,12.76,12.76,0,0,0-1.95-.09961c-3.339,0-6.68-.09961-10.019.09961a10.67407,10.67407,0,0,0-1.783.09961,5.56513,5.56513,0,0,0-2.727,1.2998,5.20483,5.20483,0,0,0-1.316,2,8.94676,8.94676,0,0,0-.466,2.40039c-.041.5-.068,1.09961-.073,1.59961-.014,1.7002-.032,3.40039-.018,5.09961.018,2.09961-.042,4.09961.12,6.2002a7.88494,7.88494,0,0,0,.384,2,4.66075,4.66075,0,0,0,1.711,2.40039,6.13,6.13,0,0,0,3.161,1.20019c.635,0,1.275.09961,1.913.09961H18.73c.687,0,1.374-.09961,2.059-.09961.513,0,1.028-.09961,1.536-.09961a5.73416,5.73416,0,0,0,2.744-1.2998,4.84026,4.84026,0,0,0,1.559-2.40039,11.26772,11.26772,0,0,0,.321-2c.041-.59961.07-1.09961.073-1.59961.005-1.60156-.00109-3.20215-.00109-4.80176Zm-12.147,7.7002a7.58884,7.58884,0,0,1-7.65711-7.52051c-.00116-.127.00092-.25293.00611-.37988a7.652,7.652,0,0,1,15.30169.26367c-.00134.0791-.0039.15722-.00769.23633a7.62849,7.62849,0,0,1-7.645,7.40039Zm-.011-2.7002A4.96258,4.96258,0,1,0,9.946,14.62207l-.004.07813a4.93475,4.93475,0,0,0,4.66058,5.19335c.08643.00391.17291.00684.2594.00684ZM24.59308,7a1.79351,1.79351,0,0,1-1.78815,1.7998h-.01184a1.77367,1.77367,0,0,1-1.81177-1.73535Q20.98059,7.03223,20.98108,7a1.8244,1.8244,0,0,1,1.74805-1.89844c.02295-.001.046-.00195.069-.00195A1.87272,1.87272,0,0,1,24.591,7Z" transform="translate(-0.00305 0.09863)"/>
</svg>
