<svg xmlns="http://www.w3.org/2000/svg" width="29.46417" height="28.31373" viewBox="0 0 29.46417 28.31373">
  <defs>
    <style>
      .a {
        fill: #7a5d78;
      }
    </style>
  </defs>
  <title>linkedin</title>
  <path class="a" d="M29.462,28.30078h-6.4V25.70117c0-2.59961.012-5.09961-.009-7.70019a7.54432,7.54432,0,0,0-.207-1.7002,2.78245,2.78245,0,0,0-3.09473-2.43164c-.06677.00781-.13324.01856-.19928.03125a3.24829,3.24829,0,0,0-2.953,3.2002c-.036,3.2998-.014,6.59961-.015,9.90039v1.2998h-6.38V9.20117h6.33v2.2002a20.3282,20.3282,0,0,1,2.552-2c3.487-1.7002,8.677-.40039,9.849,4.40039a15.991,15.991,0,0,1,.5,3.59961c.068,3.2998.024,6.59961.024,9.90039C29.462,27.60059,29.462,27.90039,29.462,28.30078ZM6.775,9.20117V28.30078H.424V9.20117Zm.4-5.7998c-.008,2-1.5,3.2998-3.665,3.2998A3.31733,3.31733,0,0,1,.014,3.57324Q.00647,3.437.01007,3.30078A3.37336,3.37336,0,0,1,3.44617-.00977c.07208.001.144.00489.21588.01075A3.22507,3.22507,0,0,1,7.179,3.40039Z" transform="translate(-0.00889 0.01295)"/>
</svg>
