<svg xmlns="http://www.w3.org/2000/svg" width="712" height="94.00049" viewBox="0 0 712 94.00049">
  <defs>
    <style>
      .a {
        fill: #896f87;
      }
    </style>
  </defs>
  <path class="a" d="M69.369,88.619H82.848V75.093A13.518,13.518,0,0,0,69.369,88.619ZM62.929,5.488H31.237A98.56648,98.56648,0,0,0,0,36.831v31.8A85.63492,85.63492,0,0,1,62.929,5.488Zm-46.028,0H0V22.447A107.06128,107.06128,0,0,1,16.9,5.488ZM5.923,88.619H18.172a64.86,64.86,0,0,1,64.676-64.9V11.431C40.432,11.431,5.923,46.058,5.923,88.619Zm20.642,0H39.851a43.118,43.118,0,0,1,43-43.143V32.144A56.444,56.444,0,0,0,26.565,88.619Zm21.571,0h13.4A21.377,21.377,0,0,1,82.852,67.23V53.789A34.81,34.81,0,0,0,48.136,88.619Zm121.338-86.642L118.508,92.13h11.068l43.688-77.38,42.77,77.38h11.027L177.14,1.977h-7.666ZM323.3,76.383,261.153,1.977h-9.25V92.13h9.743V17.724L323.8,92.13h9.251V1.977H323.3Zm118.643-27.8a49.16811,49.16811,0,0,0-11.458-4.024c-4.081-.932-8.416-1.9-13.06-2.928q-6.332-1.28392-12.389-2.451a46.81776,46.81776,0,0,1-10.028-3.025,18.309,18.309,0,0,1-6.472-4.578,9.67,9.67,0,0,1-2.081-6.647,11.0312,11.0312,0,0,1,2.13-7.08,17.55094,17.55094,0,0,1,6.149-4.908,31.17949,31.17949,0,0,1,8.954-2.765,64.08782,64.08782,0,0,1,10.025-.832,59.377,59.377,0,0,1,11.666,1.1,24.98266,24.98266,0,0,1,8.737,3.4,17.35085,17.35085,0,0,1,5.614,5.927,19.86577,19.86577,0,0,1,2.342,9.155l.147,3.357h9.8l-.219-3.718a30.481,30.481,0,0,0-3.612-13.348A25.78787,25.78787,0,0,0,439.7,6.2a36.08135,36.08135,0,0,0-11.857-4.783A66.55847,66.55847,0,0,0,413.715,0a72.477,72.477,0,0,0-12.478,1.1,41.79281,41.79281,0,0,0-11.761,3.82,25.2642,25.2642,0,0,0-9.063,7.632,20.49214,20.49214,0,0,0-3.7,12.381,19.2842,19.2842,0,0,0,3.6,11.973,24.1304,24.1304,0,0,0,8.892,7.089,51.9339,51.9339,0,0,0,11.41,3.814c3.977.863,7.972,1.69,11.839,2.45,3.722.771,7.7,1.541,11.825,2.289a48.04115,48.04115,0,0,1,10.367,3.031,19.3794,19.3794,0,0,1,6.989,4.915c1.584,1.8,2.353,4.3,2.353,7.633a11.60586,11.60586,0,0,1-2.137,7.12,18.29986,18.29986,0,0,1-6.181,5.274,32.40813,32.40813,0,0,1-9.236,3.2,56.7448,56.7448,0,0,1-10.8,1.044,62.62511,62.62511,0,0,1-13.589-1.373,28.5221,28.5221,0,0,1-10.039-4.184,18.55148,18.55148,0,0,1-6.2-7.129,24.53735,24.53735,0,0,1-2.232-11.048V57.52h-9.682l-.061,3.45a32.18888,32.18888,0,0,0,3.052,15.15,27.6453,27.6453,0,0,0,9.1,10.447,38.78785,38.78785,0,0,0,13.421,5.712,72.63184,72.63184,0,0,0,16.229,1.718,67.99167,67.99167,0,0,0,13.17-1.289,41.67787,41.67787,0,0,0,12.134-4.327,27.43194,27.43194,0,0,0,9.108-7.946,20.37068,20.37068,0,0,0,3.686-12.185c0-5.059-1.113-9.222-3.308-12.374a22.97686,22.97686,0,0,0-8.4779-7.291ZM577.906,14A44.75629,44.75629,0,0,0,562.579,3.76a59.25228,59.25228,0,0,0-41.526,0A44.72724,44.72724,0,0,0,505.726,14a43.55669,43.55669,0,0,0-9.409,15.062,52.62975,52.62975,0,0,0,0,35.99,43.55035,43.55035,0,0,0,9.409,15.061A44.046,44.046,0,0,0,521.074,90.3a60.14007,60.14007,0,0,0,41.486,0,42.76085,42.76085,0,0,0,24.755-25.253,52.60614,52.60614,0,0,0,0-35.99A43.63539,43.63539,0,0,0,577.906,14ZM541.817,84.76a44.72784,44.72784,0,0,1-16.436-2.844,33.44417,33.44417,0,0,1-19.643-19.609,42.2559,42.2559,0,0,1,0-30.509,33.44709,33.44709,0,0,1,19.643-19.607,48.90031,48.90031,0,0,1,32.867,0A33.43281,33.43281,0,0,1,577.9,31.8a42.28014,42.28014,0,0,1,0,30.51,33.44015,33.44015,0,0,1-19.646,19.608A44.723,44.723,0,0,1,541.817,84.76ZM702.26,1.977v74.4l-62.15-74.4h-9.25V92.13h9.74V17.723L702.75,92.13H712V1.977Z" transform="translate(0 0.00159)"/>
</svg>
