<svg id="2c79cd12-21df-4485-9a09-df8073d8a56c" data-name="Layer 1" xmlns="http://www.w3.org/2000/svg" width="75" height="78" viewBox="0 0 75 78">
  <defs>
    <style>
      .f8c0a331-58d6-472f-a4df-1f69c1414ada {
        fill: #cdcdcd;
      }
    </style>
  </defs>
  <title>photography</title>
  <g id="95abc97c-e090-4df9-a113-677bf389dd1d" data-name="Artboard 1">
    <path id="c3e66e9e-91a1-44c6-a8d5-f5ba177b27ae" data-name="Process 5" class="f8c0a331-58d6-472f-a4df-1f69c1414ada" d="M68.4,62.2h-46a4.1,4.1,0,0,1-4.1-4.1V31.7a4.1,4.1,0,0,1,4.1-4.1h9.1l.6.4-.6-.5h0L36,19.6a6.1,6.1,0,0,1,5.1-3h8.6a6.3,6.3,0,0,1,5.1,3l4.5,8h9.1a4.1,4.1,0,0,1,4.1,4.1V58.1A4.1,4.1,0,0,1,68.4,62.2ZM22.4,29a2.5,2.5,0,0,0-2.6,2.7V58.1a2.5,2.5,0,0,0,2.6,2.7h46A2.6,2.6,0,0,0,71,58.1V31.7A2.6,2.6,0,0,0,68.4,29H58.5l-.2-.2h-.1v-.2H58l-4.5-7.9a4.3,4.3,0,0,0-3.8-2.2H41.1a4.2,4.2,0,0,0-3.8,2.2l-4.6,8h0a.1.1,0,0,0-.1.1.1.1,0,0,0-.1.1h-.2l-.2.2H22.4Zm5.8,9.3H19a.7.7,0,1,1,0-1.4h9.2a.7.7,0,0,1,0,1.4Zm0,15.2H19a.7.7,0,1,1,0-1.4h9.2a.7.7,0,1,1,0,1.4ZM71.7,38.3H62.5a.7.7,0,1,1,0-1.4h9.2a.7.7,0,1,1,0,1.4Zm0,15.2H62.5a.7.7,0,1,1,0-1.4h9.2a.7.7,0,0,1,0,1.4Zm-26.3,5A13.4,13.4,0,1,1,58.8,45.1,13.4,13.4,0,0,1,45.4,58.5Zm0-25.3a11.9,11.9,0,1,0,12,11.9,11.9,11.9,0,0,0-12-11.9ZM39.5,51.4a.6.6,0,0,1-.5-.2,8.6,8.6,0,0,1-2.5-6.1,8.8,8.8,0,0,1,15.1-6.2.7.7,0,0,1-1,1A7.4,7.4,0,0,0,40,50.2a.7.7,0,0,1,0,1C39.9,51.4,39.7,51.4,39.5,51.4Zm5.6-37.7a.7.7,0,0,1-.7-.7V6.7a.7.7,0,0,1,1.4,0h0V13a.7.7,0,0,1-.7.7Zm0,0a.7.7,0,0,1-.7-.7V6.7a.7.7,0,0,1,1.4,0h0V13a.7.7,0,0,1-.7.7ZM26.2,20.1a.5.5,0,0,1-.5-.3L22,14.7a.7.7,0,0,1,.1-1h0a.8.8,0,0,1,1,.1l3.7,5.1a.7.7,0,0,1-.1,1ZM14.7,36.3h-.2l-6-1.9a.7.7,0,1,1,.4-1.4h0l6,2a.7.7,0,0,1,.5.9.8.8,0,0,1-.7.5ZM8.9,58.1a.9.9,0,0,1-.7-.8.6.6,0,0,1,.5-.6l6-2a.8.8,0,0,1,.9.4.7.7,0,0,1-.4,1h0L9.2,58Zm14.2,19a.7.7,0,0,1-.7-.7.8.8,0,0,1,.2-.4l3.7-5.1a.8.8,0,0,1,1-.2.7.7,0,0,1,.1,1l-3.7,5.1A.6.6,0,0,1,23.1,77.1Zm45.4-.4a.6.6,0,0,1-.6-.3l-3.7-5.1a.7.7,0,0,1,.1-1c.4-.2.8-.2,1,.2h0l3.7,5a.7.7,0,0,1-.1,1ZM82.3,57.3h-.2l-6-1.9a.8.8,0,0,1-.5-.9.7.7,0,0,1,.9-.5l6,1.9a.8.8,0,0,1,.5.9A.8.8,0,0,1,82.3,57.3ZM76.1,35.5a.8.8,0,0,1-.8-.7.6.6,0,0,1,.5-.6l6-2a.7.7,0,0,1,.9.5c.2.3-.1.7-.4.9l-6,1.9ZM64.2,19.6a.8.8,0,0,1-.8-.7l.2-.4,3.7-5.1a.8.8,0,0,1,1-.2.7.7,0,0,1,.1,1l-3.7,5.1a.6.6,0,0,1-.6.3ZM45.9,84a.7.7,0,0,1-.7-.7V77a.7.7,0,0,1,1.4,0v6.3a.7.7,0,0,1-.7.7ZM76.1,35.3a.8.8,0,0,1-.8-.7.8.8,0,0,1,.5-.7l6-1.9a.7.7,0,0,1,.5,1.3h0l-6,2ZM8.9,57.8a.7.7,0,0,1-.2-1.4l6-1.9c.4-.1.8,0,.9.4a.6.6,0,0,1-.4.9h0l-6,2Z" transform="translate(-8 -6)"/>
  </g>
</svg>
