<svg xmlns="http://www.w3.org/2000/svg" width="38.34859" height="53.15861" viewBox="0 0 38.34859 53.15861">
  <defs>
    <style>
      .a {
        fill: #694a66;
      }
    </style>
  </defs>
  <title>pin</title>
  <path class="a" d="M-.012,20.90039V17.5c.035-.2002.091-.2998.1-.40039a18.97273,18.97273,0,0,1,1.864-6.5A19.19192,19.19192,0,0,1,36.32867,27.6748q-.15664.31641-.3247.625c-.115.2002-16.817,24.79981-16.817,24.79981S3.15,29.69922,3.12793,29.7998a21.891,21.891,0,0,1-2.737-6.70019C.244,22.40039.121,21.59961-.012,20.90039ZM19.204,9.60059a9.22088,9.22088,0,1,0,.02869-.001H19.202Z" transform="translate(0.01202 0.059)"/>
</svg>
