<svg xmlns="http://www.w3.org/2000/svg" width="29.54193" height="24.31716" viewBox="0 0 29.54193 24.31716">
  <defs>
    <style>
      .a {
        fill: #7a5d78;
      }
    </style>
  </defs>
  <title>twitter</title>
  <path class="a" d="M-.012,21.60059c1.568-.2002,3.055-.29981,4.509-.5a10.39573,10.39573,0,0,0,4.082-2.09961,5.45454,5.45454,0,0,1-4.331-2.29981c-.413-.59961-.743-1.20019-1.216-2h2.332c-2.613-1.2998-4.269-3.09961-4.311-6.20019.8.2998,1.5.5,2.394.7998-2.61-3.2998-3.018-5.5-1.479-8.20019A17.84344,17.84344,0,0,0,14.27588,7.501c0-.79981-.053-1.5.009-2.2002A6.18246,6.18246,0,0,1,20.03784.001a6.50345,6.50345,0,0,1,4.448,1.5.95431.95431,0,0,0,.88.20019,18.57927,18.57927,0,0,0,2.228-.7998A8.57233,8.57233,0,0,0,28.61987.501a8.39882,8.39882,0,0,1-1.8,3.20019c.851-.2998,1.7-.5,2.554-.7998a.3425.3425,0,0,0,.156.20019c-.8.90039-1.563,1.7002-2.408,2.5a1.56169,1.56169,0,0,0-.6,1.29981,17.623,17.623,0,0,1-10.712,16.20019,17.87536,17.87536,0,0,1-15.6-1.2998A2.09786,2.09786,0,0,0-.012,21.60059Z" transform="translate(0.01202 0.00533)"/>
</svg>
